<svg xmlns="http://www.w3.org/2000/svg" viewBox="0 0 16 32">
  <rect x="11" y="0" width="1.05" height="1.05" fill="#322eae" fill-opacity="0.19"/>
  <rect x="12" y="0" width="1.05" height="1.05" fill="#332fb0" fill-opacity="0.69"/>
  <rect x="13" y="0" width="1.05" height="1.05" fill="#332fb0" fill-opacity="0.94"/>
  <rect x="14" y="0" width="1.05" height="1.05" fill="#332fb0" fill-opacity="1.00"/>
  <rect x="15" y="0" width="1.05" height="1.05" fill="#332fb0" fill-opacity="0.94"/>
  <rect x="10" y="1" width="1.05" height="1.05" fill="#1d1990" fill-opacity="0.15"/>
  <rect x="11" y="1" width="1.05" height="1.05" fill="#302cac" fill-opacity="0.80"/>
  <rect x="12" y="1" width="1.05" height="1.05" fill="#332fb0" fill-opacity="1.00"/>
  <rect x="13" y="1" width="1.05" height="1.05" fill="#332fb0" fill-opacity="1.00"/>
  <rect x="14" y="1" width="1.05" height="1.05" fill="#332fb0" fill-opacity="1.00"/>
  <rect x="15" y="1" width="1.05" height="1.05" fill="#332fb0" fill-opacity="0.98"/>
  <rect x="10" y="2" width="1.05" height="1.05" fill="#131083" fill-opacity="0.54"/>
  <rect x="11" y="2" width="1.05" height="1.05" fill="#2f2bab" fill-opacity="1.00"/>
  <rect x="12" y="2" width="1.05" height="1.05" fill="#332fb0" fill-opacity="1.00"/>
  <rect x="13" y="2" width="1.05" height="1.05" fill="#332fb0" fill-opacity="1.00"/>
  <rect x="14" y="2" width="1.05" height="1.05" fill="#332fb0" fill-opacity="1.00"/>
  <rect x="15" y="2" width="1.05" height="1.05" fill="#332fb0" fill-opacity="0.98"/>
  <rect x="9" y="3" width="1.05" height="1.05" fill="#000062" fill-opacity="0.05"/>
  <rect x="10" y="3" width="1.05" height="1.05" fill="#0a0674" fill-opacity="0.78"/>
  <rect x="11" y="3" width="1.05" height="1.05" fill="#2b27a5" fill-opacity="1.00"/>
  <rect x="12" y="3" width="1.05" height="1.05" fill="#3430b1" fill-opacity="1.00"/>
  <rect x="13" y="3" width="1.05" height="1.05" fill="#332fb0" fill-opacity="1.00"/>
  <rect x="14" y="3" width="1.05" height="1.05" fill="#332fb0" fill-opacity="1.00"/>
  <rect x="15" y="3" width="1.05" height="1.05" fill="#332fb0" fill-opacity="0.98"/>
  <rect x="9" y="4" width="1.05" height="1.05" fill="#03006b" fill-opacity="0.08"/>
  <rect x="10" y="4" width="1.05" height="1.05" fill="#03006b" fill-opacity="0.83"/>
  <rect x="11" y="4" width="1.05" height="1.05" fill="#19168b" fill-opacity="1.00"/>
  <rect x="12" y="4" width="1.05" height="1.05" fill="#332fb0" fill-opacity="1.00"/>
  <rect x="13" y="4" width="1.05" height="1.05" fill="#332fb0" fill-opacity="1.00"/>
  <rect x="14" y="4" width="1.05" height="1.05" fill="#332fb0" fill-opacity="1.00"/>
  <rect x="15" y="4" width="1.05" height="1.05" fill="#332fb0" fill-opacity="0.98"/>
  <rect x="9" y="5" width="1.05" height="1.05" fill="#03006b" fill-opacity="0.08"/>
  <rect x="10" y="5" width="1.05" height="1.05" fill="#03006b" fill-opacity="0.83"/>
  <rect x="11" y="5" width="1.05" height="1.05" fill="#05026e" fill-opacity="1.00"/>
  <rect x="12" y="5" width="1.05" height="1.05" fill="#1f1b93" fill-opacity="1.00"/>
  <rect x="13" y="5" width="1.05" height="1.05" fill="#332faf" fill-opacity="1.00"/>
  <rect x="14" y="5" width="1.05" height="1.05" fill="#332fb0" fill-opacity="1.00"/>
  <rect x="15" y="5" width="1.05" height="1.05" fill="#332fb0" fill-opacity="0.98"/>
  <rect x="9" y="6" width="1.05" height="1.05" fill="#03006b" fill-opacity="0.08"/>
  <rect x="10" y="6" width="1.05" height="1.05" fill="#03006b" fill-opacity="0.83"/>
  <rect x="11" y="6" width="1.05" height="1.05" fill="#03006b" fill-opacity="1.00"/>
  <rect x="12" y="6" width="1.05" height="1.05" fill="#05026e" fill-opacity="1.00"/>
  <rect x="13" y="6" width="1.05" height="1.05" fill="#1d1a91" fill-opacity="1.00"/>
  <rect x="14" y="6" width="1.05" height="1.05" fill="#332faf" fill-opacity="1.00"/>
  <rect x="15" y="6" width="1.05" height="1.05" fill="#332fb0" fill-opacity="0.98"/>
  <rect x="9" y="7" width="1.05" height="1.05" fill="#03006b" fill-opacity="0.08"/>
  <rect x="10" y="7" width="1.05" height="1.05" fill="#03006b" fill-opacity="0.83"/>
  <rect x="11" y="7" width="1.05" height="1.05" fill="#03006b" fill-opacity="1.00"/>
  <rect x="12" y="7" width="1.05" height="1.05" fill="#03006b" fill-opacity="1.00"/>
  <rect x="13" y="7" width="1.05" height="1.05" fill="#05026e" fill-opacity="1.00"/>
  <rect x="14" y="7" width="1.05" height="1.05" fill="#221f98" fill-opacity="1.00"/>
  <rect x="15" y="7" width="1.05" height="1.05" fill="#3430b1" fill-opacity="0.98"/>
  <rect x="9" y="8" width="1.05" height="1.05" fill="#03006b" fill-opacity="0.08"/>
  <rect x="10" y="8" width="1.05" height="1.05" fill="#03006b" fill-opacity="0.83"/>
  <rect x="11" y="8" width="1.05" height="1.05" fill="#03006b" fill-opacity="1.00"/>
  <rect x="12" y="8" width="1.05" height="1.05" fill="#03006b" fill-opacity="1.00"/>
  <rect x="13" y="8" width="1.05" height="1.05" fill="#02006a" fill-opacity="1.00"/>
  <rect x="14" y="8" width="1.05" height="1.05" fill="#0c0978" fill-opacity="1.00"/>
  <rect x="15" y="8" width="1.05" height="1.05" fill="#2d29a7" fill-opacity="0.98"/>
  <rect x="9" y="9" width="1.05" height="1.05" fill="#03006b" fill-opacity="0.08"/>
  <rect x="10" y="9" width="1.05" height="1.05" fill="#03006b" fill-opacity="0.83"/>
  <rect x="11" y="9" width="1.05" height="1.05" fill="#03006b" fill-opacity="1.00"/>
  <rect x="12" y="9" width="1.05" height="1.05" fill="#03006b" fill-opacity="1.00"/>
  <rect x="13" y="9" width="1.05" height="1.05" fill="#03006b" fill-opacity="1.00"/>
  <rect x="14" y="9" width="1.05" height="1.05" fill="#04016c" fill-opacity="1.00"/>
  <rect x="15" y="9" width="1.05" height="1.05" fill="#1e1b92" fill-opacity="0.98"/>
  <rect x="9" y="10" width="1.05" height="1.05" fill="#03006b" fill-opacity="0.08"/>
  <rect x="10" y="10" width="1.05" height="1.05" fill="#03006b" fill-opacity="0.83"/>
  <rect x="11" y="10" width="1.05" height="1.05" fill="#03006b" fill-opacity="1.00"/>
  <rect x="12" y="10" width="1.05" height="1.05" fill="#03006b" fill-opacity="1.00"/>
  <rect x="13" y="10" width="1.05" height="1.05" fill="#02006a" fill-opacity="1.00"/>
  <rect x="14" y="10" width="1.05" height="1.05" fill="#02006a" fill-opacity="1.00"/>
  <rect x="15" y="10" width="1.05" height="1.05" fill="#110e7f" fill-opacity="0.98"/>
  <rect x="4" y="11" width="1.05" height="1.05" fill="#03006b" fill-opacity="0.03"/>
  <rect x="5" y="11" width="1.05" height="1.05" fill="#03006b" fill-opacity="0.20"/>
  <rect x="6" y="11" width="1.05" height="1.05" fill="#03006b" fill-opacity="0.40"/>
  <rect x="7" y="11" width="1.05" height="1.05" fill="#03006b" fill-opacity="0.52"/>
  <rect x="8" y="11" width="1.05" height="1.05" fill="#03006b" fill-opacity="0.51"/>
  <rect x="9" y="11" width="1.05" height="1.05" fill="#03006b" fill-opacity="0.46"/>
  <rect x="10" y="11" width="1.05" height="1.05" fill="#03006b" fill-opacity="0.88"/>
  <rect x="11" y="11" width="1.05" height="1.05" fill="#03006b" fill-opacity="1.00"/>
  <rect x="12" y="11" width="1.05" height="1.05" fill="#03006b" fill-opacity="1.00"/>
  <rect x="13" y="11" width="1.05" height="1.05" fill="#161376" fill-opacity="1.00"/>
  <rect x="14" y="11" width="1.05" height="1.05" fill="#0f0d72" fill-opacity="1.00"/>
  <rect x="15" y="11" width="1.05" height="1.05" fill="#090674" fill-opacity="0.98"/>
  <rect x="2" y="12" width="1.05" height="1.05" fill="#03006b" fill-opacity="0.00"/>
  <rect x="3" y="12" width="1.05" height="1.05" fill="#03006b" fill-opacity="0.22"/>
  <rect x="4" y="12" width="1.05" height="1.05" fill="#03006b" fill-opacity="0.66"/>
  <rect x="5" y="12" width="1.05" height="1.05" fill="#010069" fill-opacity="0.93"/>
  <rect x="6" y="12" width="1.05" height="1.05" fill="#000069" fill-opacity="1.00"/>
  <rect x="7" y="12" width="1.05" height="1.05" fill="#03006b" fill-opacity="1.00"/>
  <rect x="8" y="12" width="1.05" height="1.05" fill="#03006b" fill-opacity="1.00"/>
  <rect x="9" y="12" width="1.05" height="1.05" fill="#000069" fill-opacity="1.00"/>
  <rect x="10" y="12" width="1.05" height="1.05" fill="#000069" fill-opacity="1.00"/>
  <rect x="11" y="12" width="1.05" height="1.05" fill="#02006b" fill-opacity="1.00"/>
  <rect x="12" y="12" width="1.05" height="1.05" fill="#05026c" fill-opacity="1.00"/>
  <rect x="13" y="12" width="1.05" height="1.05" fill="#9392c0" fill-opacity="1.00"/>
  <rect x="14" y="12" width="1.05" height="1.05" fill="#4c4a96" fill-opacity="1.00"/>
  <rect x="15" y="12" width="1.05" height="1.05" fill="#01006c" fill-opacity="0.98"/>
  <rect x="1" y="13" width="1.05" height="1.05" fill="#03006b" fill-opacity="0.00"/>
  <rect x="2" y="13" width="1.05" height="1.05" fill="#03006b" fill-opacity="0.35"/>
  <rect x="3" y="13" width="1.05" height="1.05" fill="#02006a" fill-opacity="0.89"/>
  <rect x="4" y="13" width="1.05" height="1.05" fill="#04036c" fill-opacity="1.00"/>
  <rect x="5" y="13" width="1.05" height="1.05" fill="#343187" fill-opacity="1.00"/>
  <rect x="6" y="13" width="1.05" height="1.05" fill="#7b77b0" fill-opacity="1.00"/>
  <rect x="7" y="13" width="1.05" height="1.05" fill="#9e9dc6" fill-opacity="1.00"/>
  <rect x="8" y="13" width="1.05" height="1.05" fill="#a19ec7" fill-opacity="1.00"/>
  <rect x="9" y="13" width="1.05" height="1.05" fill="#7f7cb3" fill-opacity="1.00"/>
  <rect x="10" y="13" width="1.05" height="1.05" fill="#3c388c" fill-opacity="1.00"/>
  <rect x="11" y="13" width="1.05" height="1.05" fill="#07056d" fill-opacity="1.00"/>
  <rect x="12" y="13" width="1.05" height="1.05" fill="#06056d" fill-opacity="1.00"/>
  <rect x="13" y="13" width="1.05" height="1.05" fill="#afaed0" fill-opacity="1.00"/>
  <rect x="14" y="13" width="1.05" height="1.05" fill="#53519a" fill-opacity="1.00"/>
  <rect x="15" y="13" width="1.05" height="1.05" fill="#000068" fill-opacity="0.98"/>
  <rect x="1" y="14" width="1.05" height="1.05" fill="#03006b" fill-opacity="0.28"/>
  <rect x="2" y="14" width="1.05" height="1.05" fill="#02006a" fill-opacity="0.91"/>
  <rect x="3" y="14" width="1.05" height="1.05" fill="#100e72" fill-opacity="1.00"/>
  <rect x="4" y="14" width="1.05" height="1.05" fill="#827fb5" fill-opacity="1.00"/>
  <rect x="5" y="14" width="1.05" height="1.05" fill="#d0e0ed" fill-opacity="1.00"/>
  <rect x="6" y="14" width="1.05" height="1.05" fill="#b0e5f3" fill-opacity="1.00"/>
  <rect x="7" y="14" width="1.05" height="1.05" fill="#c6eef7" fill-opacity="1.00"/>
  <rect x="8" y="14" width="1.05" height="1.05" fill="#dcf6fb" fill-opacity="1.00"/>
  <rect x="9" y="14" width="1.05" height="1.05" fill="#c8eef7" fill-opacity="1.00"/>
  <rect x="10" y="14" width="1.05" height="1.05" fill="#d2e4f0" fill-opacity="1.00"/>
  <rect x="11" y="14" width="1.05" height="1.05" fill="#9593c0" fill-opacity="1.00"/>
  <rect x="12" y="14" width="1.05" height="1.05" fill="#1f1d7b" fill-opacity="1.00"/>
  <rect x="13" y="14" width="1.05" height="1.05" fill="#adadcf" fill-opacity="1.00"/>
  <rect x="14" y="14" width="1.05" height="1.05" fill="#53519a" fill-opacity="1.00"/>
  <rect x="15" y="14" width="1.05" height="1.05" fill="#000068" fill-opacity="0.98"/>
  <rect x="0" y="15" width="1.05" height="1.05" fill="#03006b" fill-opacity="0.10"/>
  <rect x="1" y="15" width="1.05" height="1.05" fill="#02006b" fill-opacity="0.77"/>
  <rect x="2" y="15" width="1.05" height="1.05" fill="#0a086f" fill-opacity="1.00"/>
  <rect x="3" y="15" width="1.05" height="1.05" fill="#918fbe" fill-opacity="1.00"/>
  <rect x="4" y="15" width="1.05" height="1.05" fill="#c1e9f4" fill-opacity="1.00"/>
  <rect x="5" y="15" width="1.05" height="1.05" fill="#4ec3e2" fill-opacity="1.00"/>
  <rect x="6" y="15" width="1.05" height="1.05" fill="#48c0e0" fill-opacity="1.00"/>
  <rect x="7" y="15" width="1.05" height="1.05" fill="#74cfe7" fill-opacity="1.00"/>
  <rect x="8" y="15" width="1.05" height="1.05" fill="#44bedf" fill-opacity="1.00"/>
  <rect x="9" y="15" width="1.05" height="1.05" fill="#7cd2e9" fill-opacity="1.00"/>
  <rect x="10" y="15" width="1.05" height="1.05" fill="#4dc3e1" fill-opacity="1.00"/>
  <rect x="11" y="15" width="1.05" height="1.05" fill="#bfeaf5" fill-opacity="1.00"/>
  <rect x="12" y="15" width="1.05" height="1.05" fill="#afaed0" fill-opacity="1.00"/>
  <rect x="13" y="15" width="1.05" height="1.05" fill="#bfbed9" fill-opacity="1.00"/>
  <rect x="14" y="15" width="1.05" height="1.05" fill="#52509a" fill-opacity="1.00"/>
  <rect x="15" y="15" width="1.05" height="1.05" fill="#000068" fill-opacity="0.98"/>
  <rect x="0" y="16" width="1.05" height="1.05" fill="#03006b" fill-opacity="0.44"/>
  <rect x="1" y="16" width="1.05" height="1.05" fill="#000069" fill-opacity="0.98"/>
  <rect x="2" y="16" width="1.05" height="1.05" fill="#5c599e" fill-opacity="1.00"/>
  <rect x="3" y="16" width="1.05" height="1.05" fill="#c9e7f3" fill-opacity="1.00"/>
  <rect x="4" y="16" width="1.05" height="1.05" fill="#41bedf" fill-opacity="1.00"/>
  <rect x="5" y="16" width="1.05" height="1.05" fill="#21b2d9" fill-opacity="1.00"/>
  <rect x="6" y="16" width="1.05" height="1.05" fill="#3dbcde" fill-opacity="1.00"/>
  <rect x="7" y="16" width="1.05" height="1.05" fill="#81d3e9" fill-opacity="1.00"/>
  <rect x="8" y="16" width="1.05" height="1.05" fill="#6ccce6" fill-opacity="1.00"/>
  <rect x="9" y="16" width="1.05" height="1.05" fill="#71cee7" fill-opacity="1.00"/>
  <rect x="10" y="16" width="1.05" height="1.05" fill="#23b3da" fill-opacity="1.00"/>
  <rect x="11" y="16" width="1.05" height="1.05" fill="#3cbcde" fill-opacity="1.00"/>
  <rect x="12" y="16" width="1.05" height="1.05" fill="#c7eaf5" fill-opacity="1.00"/>
  <rect x="13" y="16" width="1.05" height="1.05" fill="#f6f4f9" fill-opacity="1.00"/>
  <rect x="14" y="16" width="1.05" height="1.05" fill="#504d98" fill-opacity="1.00"/>
  <rect x="15" y="16" width="1.05" height="1.05" fill="#000068" fill-opacity="0.98"/>
  <rect x="0" y="17" width="1.05" height="1.05" fill="#02006a" fill-opacity="0.76"/>
  <rect x="1" y="17" width="1.05" height="1.05" fill="#0d0a71" fill-opacity="1.00"/>
  <rect x="2" y="17" width="1.05" height="1.05" fill="#b5b7d5" fill-opacity="1.00"/>
  <rect x="3" y="17" width="1.05" height="1.05" fill="#74d1e9" fill-opacity="1.00"/>
  <rect x="4" y="17" width="1.05" height="1.05" fill="#22b3d9" fill-opacity="1.00"/>
  <rect x="5" y="17" width="1.05" height="1.05" fill="#26b4da" fill-opacity="1.00"/>
  <rect x="6" y="17" width="1.05" height="1.05" fill="#26b4da" fill-opacity="1.00"/>
  <rect x="7" y="17" width="1.05" height="1.05" fill="#44bedf" fill-opacity="1.00"/>
  <rect x="8" y="17" width="1.05" height="1.05" fill="#59c6e3" fill-opacity="1.00"/>
  <rect x="9" y="17" width="1.05" height="1.05" fill="#30b8dc" fill-opacity="1.00"/>
  <rect x="10" y="17" width="1.05" height="1.05" fill="#25b4da" fill-opacity="1.00"/>
  <rect x="11" y="17" width="1.05" height="1.05" fill="#22b3d9" fill-opacity="1.00"/>
  <rect x="12" y="17" width="1.05" height="1.05" fill="#68cbe5" fill-opacity="1.00"/>
  <rect x="13" y="17" width="1.05" height="1.05" fill="#f3f8fb" fill-opacity="1.00"/>
  <rect x="14" y="17" width="1.05" height="1.05" fill="#504d98" fill-opacity="1.00"/>
  <rect x="15" y="17" width="1.05" height="1.05" fill="#000068" fill-opacity="0.98"/>
  <rect x="0" y="18" width="1.05" height="1.05" fill="#000069" fill-opacity="0.93"/>
  <rect x="1" y="18" width="1.05" height="1.05" fill="#2c2882" fill-opacity="1.00"/>
  <rect x="2" y="18" width="1.05" height="1.05" fill="#c8dcec" fill-opacity="1.00"/>
  <rect x="3" y="18" width="1.05" height="1.05" fill="#3fbedf" fill-opacity="1.00"/>
  <rect x="4" y="18" width="1.05" height="1.05" fill="#24b3da" fill-opacity="1.00"/>
  <rect x="5" y="18" width="1.05" height="1.05" fill="#26b4da" fill-opacity="1.00"/>
  <rect x="6" y="18" width="1.05" height="1.05" fill="#26b4da" fill-opacity="1.00"/>
  <rect x="7" y="18" width="1.05" height="1.05" fill="#24b3da" fill-opacity="1.00"/>
  <rect x="8" y="18" width="1.05" height="1.05" fill="#23b3d9" fill-opacity="1.00"/>
  <rect x="9" y="18" width="1.05" height="1.05" fill="#25b4da" fill-opacity="1.00"/>
  <rect x="10" y="18" width="1.05" height="1.05" fill="#26b4da" fill-opacity="1.00"/>
  <rect x="11" y="18" width="1.05" height="1.05" fill="#25b4da" fill-opacity="1.00"/>
  <rect x="12" y="18" width="1.05" height="1.05" fill="#38badd" fill-opacity="1.00"/>
  <rect x="13" y="18" width="1.05" height="1.05" fill="#d5eef6" fill-opacity="1.00"/>
  <rect x="14" y="18" width="1.05" height="1.05" fill="#524e98" fill-opacity="1.00"/>
  <rect x="15" y="18" width="1.05" height="1.05" fill="#000068" fill-opacity="0.98"/>
  <rect x="0" y="19" width="1.05" height="1.05" fill="#000069" fill-opacity="0.99"/>
  <rect x="1" y="19" width="1.05" height="1.05" fill="#403b8d" fill-opacity="1.00"/>
  <rect x="2" y="19" width="1.05" height="1.05" fill="#c3e3f0" fill-opacity="1.00"/>
  <rect x="3" y="19" width="1.05" height="1.05" fill="#31b8dc" fill-opacity="1.00"/>
  <rect x="4" y="19" width="1.05" height="1.05" fill="#25b4da" fill-opacity="1.00"/>
  <rect x="5" y="19" width="1.05" height="1.05" fill="#26b4da" fill-opacity="1.00"/>
  <rect x="6" y="19" width="1.05" height="1.05" fill="#26b4da" fill-opacity="1.00"/>
  <rect x="7" y="19" width="1.05" height="1.05" fill="#26b4da" fill-opacity="1.00"/>
  <rect x="8" y="19" width="1.05" height="1.05" fill="#26b4da" fill-opacity="1.00"/>
  <rect x="9" y="19" width="1.05" height="1.05" fill="#26b4da" fill-opacity="1.00"/>
  <rect x="10" y="19" width="1.05" height="1.05" fill="#26b4da" fill-opacity="1.00"/>
  <rect x="11" y="19" width="1.05" height="1.05" fill="#26b4da" fill-opacity="1.00"/>
  <rect x="12" y="19" width="1.05" height="1.05" fill="#2db6db" fill-opacity="1.00"/>
  <rect x="13" y="19" width="1.05" height="1.05" fill="#c1e7f3" fill-opacity="1.00"/>
  <rect x="14" y="19" width="1.05" height="1.05" fill="#534e98" fill-opacity="1.00"/>
  <rect x="15" y="19" width="1.05" height="1.05" fill="#000068" fill-opacity="0.99"/>
  <rect x="0" y="20" width="1.05" height="1.05" fill="#000069" fill-opacity="0.96"/>
  <rect x="1" y="20" width="1.05" height="1.05" fill="#3b368b" fill-opacity="1.00"/>
  <rect x="2" y="20" width="1.05" height="1.05" fill="#c5e2ef" fill-opacity="1.00"/>
  <rect x="3" y="20" width="1.05" height="1.05" fill="#34b9dd" fill-opacity="1.00"/>
  <rect x="4" y="20" width="1.05" height="1.05" fill="#25b4da" fill-opacity="1.00"/>
  <rect x="5" y="20" width="1.05" height="1.05" fill="#26b4da" fill-opacity="1.00"/>
  <rect x="6" y="20" width="1.05" height="1.05" fill="#26b4da" fill-opacity="1.00"/>
  <rect x="7" y="20" width="1.05" height="1.05" fill="#26b4da" fill-opacity="1.00"/>
  <rect x="8" y="20" width="1.05" height="1.05" fill="#26b4da" fill-opacity="1.00"/>
  <rect x="9" y="20" width="1.05" height="1.05" fill="#26b4da" fill-opacity="1.00"/>
  <rect x="10" y="20" width="1.05" height="1.05" fill="#26b4da" fill-opacity="1.00"/>
  <rect x="11" y="20" width="1.05" height="1.05" fill="#25b4da" fill-opacity="1.00"/>
  <rect x="12" y="20" width="1.05" height="1.05" fill="#2fb7dc" fill-opacity="1.00"/>
  <rect x="13" y="20" width="1.05" height="1.05" fill="#c6e9f4" fill-opacity="1.00"/>
  <rect x="14" y="20" width="1.05" height="1.05" fill="#524e98" fill-opacity="1.00"/>
  <rect x="15" y="20" width="1.05" height="1.05" fill="#000068" fill-opacity="0.97"/>
  <rect x="0" y="21" width="1.05" height="1.05" fill="#01006a" fill-opacity="0.84"/>
  <rect x="1" y="21" width="1.05" height="1.05" fill="#201c7b" fill-opacity="1.00"/>
  <rect x="2" y="21" width="1.05" height="1.05" fill="#c7d4e6" fill-opacity="1.00"/>
  <rect x="3" y="21" width="1.05" height="1.05" fill="#4dc3e2" fill-opacity="1.00"/>
  <rect x="4" y="21" width="1.05" height="1.05" fill="#23b3da" fill-opacity="1.00"/>
  <rect x="5" y="21" width="1.05" height="1.05" fill="#26b4da" fill-opacity="1.00"/>
  <rect x="6" y="21" width="1.05" height="1.05" fill="#26b4da" fill-opacity="1.00"/>
  <rect x="7" y="21" width="1.05" height="1.05" fill="#26b4da" fill-opacity="1.00"/>
  <rect x="8" y="21" width="1.05" height="1.05" fill="#26b4da" fill-opacity="1.00"/>
  <rect x="9" y="21" width="1.05" height="1.05" fill="#26b4da" fill-opacity="1.00"/>
  <rect x="10" y="21" width="1.05" height="1.05" fill="#26b4da" fill-opacity="1.00"/>
  <rect x="11" y="21" width="1.05" height="1.05" fill="#24b3da" fill-opacity="1.00"/>
  <rect x="12" y="21" width="1.05" height="1.05" fill="#44bfdf" fill-opacity="1.00"/>
  <rect x="13" y="21" width="1.05" height="1.05" fill="#e2f2f8" fill-opacity="1.00"/>
  <rect x="14" y="21" width="1.05" height="1.05" fill="#504d98" fill-opacity="1.00"/>
  <rect x="15" y="21" width="1.05" height="1.05" fill="#000068" fill-opacity="0.85"/>
  <rect x="0" y="22" width="1.05" height="1.05" fill="#03006b" fill-opacity="0.57"/>
  <rect x="1" y="22" width="1.05" height="1.05" fill="#05026c" fill-opacity="1.00"/>
  <rect x="2" y="22" width="1.05" height="1.05" fill="#9a98c3" fill-opacity="1.00"/>
  <rect x="3" y="22" width="1.05" height="1.05" fill="#98deef" fill-opacity="1.00"/>
  <rect x="4" y="22" width="1.05" height="1.05" fill="#25b4da" fill-opacity="1.00"/>
  <rect x="5" y="22" width="1.05" height="1.05" fill="#26b4da" fill-opacity="1.00"/>
  <rect x="6" y="22" width="1.05" height="1.05" fill="#26b4da" fill-opacity="1.00"/>
  <rect x="7" y="22" width="1.05" height="1.05" fill="#26b4da" fill-opacity="1.00"/>
  <rect x="8" y="22" width="1.05" height="1.05" fill="#26b4da" fill-opacity="1.00"/>
  <rect x="9" y="22" width="1.05" height="1.05" fill="#26b4da" fill-opacity="1.00"/>
  <rect x="10" y="22" width="1.05" height="1.05" fill="#26b4da" fill-opacity="1.00"/>
  <rect x="11" y="22" width="1.05" height="1.05" fill="#24b3da" fill-opacity="1.00"/>
  <rect x="12" y="22" width="1.05" height="1.05" fill="#8cd7ec" fill-opacity="1.00"/>
  <rect x="13" y="22" width="1.05" height="1.05" fill="#fafbfc" fill-opacity="1.00"/>
  <rect x="14" y="22" width="1.05" height="1.05" fill="#4f4d98" fill-opacity="1.00"/>
  <rect x="15" y="22" width="1.05" height="1.05" fill="#000066" fill-opacity="0.58"/>
  <rect x="0" y="23" width="1.05" height="1.05" fill="#03006b" fill-opacity="0.21"/>
  <rect x="1" y="23" width="1.05" height="1.05" fill="#000069" fill-opacity="0.89"/>
  <rect x="2" y="23" width="1.05" height="1.05" fill="#323086" fill-opacity="1.00"/>
  <rect x="3" y="23" width="1.05" height="1.05" fill="#ced8e9" fill-opacity="1.00"/>
  <rect x="4" y="23" width="1.05" height="1.05" fill="#6fcfe8" fill-opacity="1.00"/>
  <rect x="5" y="23" width="1.05" height="1.05" fill="#24b3da" fill-opacity="1.00"/>
  <rect x="6" y="23" width="1.05" height="1.05" fill="#24b3da" fill-opacity="1.00"/>
  <rect x="7" y="23" width="1.05" height="1.05" fill="#26b4da" fill-opacity="1.00"/>
  <rect x="8" y="23" width="1.05" height="1.05" fill="#26b4da" fill-opacity="1.00"/>
  <rect x="9" y="23" width="1.05" height="1.05" fill="#24b3da" fill-opacity="1.00"/>
  <rect x="10" y="23" width="1.05" height="1.05" fill="#23b3d9" fill-opacity="1.00"/>
  <rect x="11" y="23" width="1.05" height="1.05" fill="#66cce6" fill-opacity="1.00"/>
  <rect x="12" y="23" width="1.05" height="1.05" fill="#d9e6f1" fill-opacity="1.00"/>
  <rect x="13" y="23" width="1.05" height="1.05" fill="#e1e0ed" fill-opacity="1.00"/>
  <rect x="14" y="23" width="1.05" height="1.05" fill="#5a589e" fill-opacity="0.89"/>
  <rect x="15" y="23" width="1.05" height="1.05" fill="#00005e" fill-opacity="0.21"/>
  <rect x="0" y="24" width="1.05" height="1.05" fill="#03006b" fill-opacity="0.00"/>
  <rect x="1" y="24" width="1.05" height="1.05" fill="#03006b" fill-opacity="0.47"/>
  <rect x="2" y="24" width="1.05" height="1.05" fill="#01006a" fill-opacity="0.98"/>
  <rect x="3" y="24" width="1.05" height="1.05" fill="#53519a" fill-opacity="1.00"/>
  <rect x="4" y="24" width="1.05" height="1.05" fill="#d0dceb" fill-opacity="1.00"/>
  <rect x="5" y="24" width="1.05" height="1.05" fill="#91dcee" fill-opacity="1.00"/>
  <rect x="6" y="24" width="1.05" height="1.05" fill="#45c0e0" fill-opacity="1.00"/>
  <rect x="7" y="24" width="1.05" height="1.05" fill="#2fb8dc" fill-opacity="1.00"/>
  <rect x="8" y="24" width="1.05" height="1.05" fill="#2fb7dc" fill-opacity="1.00"/>
  <rect x="9" y="24" width="1.05" height="1.05" fill="#43bfe0" fill-opacity="1.00"/>
  <rect x="10" y="24" width="1.05" height="1.05" fill="#8bdaed" fill-opacity="1.00"/>
  <rect x="11" y="24" width="1.05" height="1.05" fill="#d7e5f1" fill-opacity="1.00"/>
  <rect x="12" y="24" width="1.05" height="1.05" fill="#6f6caa" fill-opacity="1.00"/>
  <rect x="13" y="24" width="1.05" height="1.05" fill="#afaed0" fill-opacity="0.99"/>
  <rect x="14" y="24" width="1.05" height="1.05" fill="#9c9bc5" fill-opacity="0.47"/>
  <rect x="15" y="24" width="1.05" height="1.05" fill="#000000" fill-opacity="0.00"/>
  <rect x="1" y="25" width="1.05" height="1.05" fill="#03006b" fill-opacity="0.05"/>
  <rect x="2" y="25" width="1.05" height="1.05" fill="#03006b" fill-opacity="0.59"/>
  <rect x="3" y="25" width="1.05" height="1.05" fill="#02016a" fill-opacity="0.98"/>
  <rect x="4" y="25" width="1.05" height="1.05" fill="#3b388b" fill-opacity="1.00"/>
  <rect x="5" y="25" width="1.05" height="1.05" fill="#aaa9cd" fill-opacity="1.00"/>
  <rect x="6" y="25" width="1.05" height="1.05" fill="#cfdfed" fill-opacity="1.00"/>
  <rect x="7" y="25" width="1.05" height="1.05" fill="#c5e7f3" fill-opacity="1.00"/>
  <rect x="8" y="25" width="1.05" height="1.05" fill="#c5e7f3" fill-opacity="1.00"/>
  <rect x="9" y="25" width="1.05" height="1.05" fill="#cfe1ee" fill-opacity="1.00"/>
  <rect x="10" y="25" width="1.05" height="1.05" fill="#b2b1d2" fill-opacity="1.00"/>
  <rect x="11" y="25" width="1.05" height="1.05" fill="#484593" fill-opacity="1.00"/>
  <rect x="12" y="25" width="1.05" height="1.05" fill="#0a096f" fill-opacity="0.98"/>
  <rect x="13" y="25" width="1.05" height="1.05" fill="#8b8abb" fill-opacity="0.59"/>
  <rect x="14" y="25" width="1.05" height="1.05" fill="#ffffff" fill-opacity="0.05"/>
  <rect x="2" y="26" width="1.05" height="1.05" fill="#03006b" fill-opacity="0.05"/>
  <rect x="3" y="26" width="1.05" height="1.05" fill="#03006b" fill-opacity="0.47"/>
  <rect x="4" y="26" width="1.05" height="1.05" fill="#000069" fill-opacity="0.89"/>
  <rect x="5" y="26" width="1.05" height="1.05" fill="#09076f" fill-opacity="1.00"/>
  <rect x="6" y="26" width="1.05" height="1.05" fill="#2d2983" fill-opacity="1.00"/>
  <rect x="7" y="26" width="1.05" height="1.05" fill="#4b4794" fill-opacity="1.00"/>
  <rect x="8" y="26" width="1.05" height="1.05" fill="#4c4895" fill-opacity="1.00"/>
  <rect x="9" y="26" width="1.05" height="1.05" fill="#302c85" fill-opacity="1.00"/>
  <rect x="10" y="26" width="1.05" height="1.05" fill="#0b0970" fill-opacity="1.00"/>
  <rect x="11" y="26" width="1.05" height="1.05" fill="#000069" fill-opacity="0.89"/>
  <rect x="12" y="26" width="1.05" height="1.05" fill="#03016b" fill-opacity="0.47"/>
  <rect x="13" y="26" width="1.05" height="1.05" fill="#1f1c7b" fill-opacity="0.05"/>
  <rect x="3" y="27" width="1.05" height="1.05" fill="#03006b" fill-opacity="0.01"/>
  <rect x="4" y="27" width="1.05" height="1.05" fill="#03006b" fill-opacity="0.18"/>
  <rect x="5" y="27" width="1.05" height="1.05" fill="#02006a" fill-opacity="0.49"/>
  <rect x="6" y="27" width="1.05" height="1.05" fill="#000069" fill-opacity="0.71"/>
  <rect x="7" y="27" width="1.05" height="1.05" fill="#000068" fill-opacity="0.81"/>
  <rect x="8" y="27" width="1.05" height="1.05" fill="#000068" fill-opacity="0.81"/>
  <rect x="9" y="27" width="1.05" height="1.05" fill="#000069" fill-opacity="0.71"/>
  <rect x="10" y="27" width="1.05" height="1.05" fill="#02006a" fill-opacity="0.49"/>
  <rect x="11" y="27" width="1.05" height="1.05" fill="#03006b" fill-opacity="0.18"/>
  <rect x="12" y="27" width="1.05" height="1.05" fill="#03006b" fill-opacity="0.01"/>
  <rect x="6" y="28" width="1.05" height="1.05" fill="#03006b" fill-opacity="0.02"/>
  <rect x="7" y="28" width="1.05" height="1.05" fill="#03006b" fill-opacity="0.06"/>
  <rect x="8" y="28" width="1.05" height="1.05" fill="#03006b" fill-opacity="0.07"/>
  <rect x="9" y="28" width="1.05" height="1.05" fill="#03006b" fill-opacity="0.03"/>
  <rect x="0" y="29" width="1.05" height="1.05" fill="#03006b" fill-opacity="0.07"/>
  <rect x="1" y="29" width="1.05" height="1.05" fill="#03006b" fill-opacity="0.11"/>
  <rect x="2" y="29" width="1.05" height="1.05" fill="#03006b" fill-opacity="0.07"/>
  <rect x="3" y="29" width="1.05" height="1.05" fill="#03006b" fill-opacity="0.14"/>
  <rect x="4" y="29" width="1.05" height="1.05" fill="#03006b" fill-opacity="0.05"/>
  <rect x="5" y="29" width="1.05" height="1.05" fill="#03006b" fill-opacity="0.08"/>
  <rect x="6" y="29" width="1.05" height="1.05" fill="#03006b" fill-opacity="0.07"/>
  <rect x="7" y="29" width="1.05" height="1.05" fill="#03006b" fill-opacity="0.03"/>
  <rect x="8" y="29" width="1.05" height="1.05" fill="#03006b" fill-opacity="0.10"/>
  <rect x="9" y="29" width="1.05" height="1.05" fill="#03006b" fill-opacity="0.18"/>
  <rect x="10" y="29" width="1.05" height="1.05" fill="#03006b" fill-opacity="0.09"/>
  <rect x="11" y="29" width="1.05" height="1.05" fill="#03006b" fill-opacity="0.07"/>
  <rect x="12" y="29" width="1.05" height="1.05" fill="#03006b" fill-opacity="0.07"/>
  <rect x="13" y="29" width="1.05" height="1.05" fill="#03006b" fill-opacity="0.06"/>
  <rect x="14" y="29" width="1.05" height="1.05" fill="#03006b" fill-opacity="0.08"/>
  <rect x="15" y="29" width="1.05" height="1.05" fill="#03006b" fill-opacity="0.07"/>
  <rect x="0" y="30" width="1.05" height="1.05" fill="#03006b" fill-opacity="0.23"/>
  <rect x="1" y="30" width="1.05" height="1.05" fill="#03006b" fill-opacity="0.32"/>
  <rect x="2" y="30" width="1.05" height="1.05" fill="#03006b" fill-opacity="0.25"/>
  <rect x="3" y="30" width="1.05" height="1.05" fill="#03006b" fill-opacity="0.29"/>
  <rect x="4" y="30" width="1.05" height="1.05" fill="#03006b" fill-opacity="0.26"/>
  <rect x="5" y="30" width="1.05" height="1.05" fill="#03006b" fill-opacity="0.25"/>
  <rect x="6" y="30" width="1.05" height="1.05" fill="#03006b" fill-opacity="0.29"/>
  <rect x="7" y="30" width="1.05" height="1.05" fill="#03006b" fill-opacity="0.22"/>
  <rect x="8" y="30" width="1.05" height="1.05" fill="#03006b" fill-opacity="0.15"/>
  <rect x="9" y="30" width="1.05" height="1.05" fill="#03006b" fill-opacity="0.22"/>
  <rect x="10" y="30" width="1.05" height="1.05" fill="#03006b" fill-opacity="0.34"/>
  <rect x="11" y="30" width="1.05" height="1.05" fill="#03006b" fill-opacity="0.32"/>
  <rect x="12" y="30" width="1.05" height="1.05" fill="#03006b" fill-opacity="0.22"/>
  <rect x="13" y="30" width="1.05" height="1.05" fill="#03006b" fill-opacity="0.21"/>
  <rect x="14" y="30" width="1.05" height="1.05" fill="#03006b" fill-opacity="0.28"/>
  <rect x="15" y="30" width="1.05" height="1.05" fill="#03006b" fill-opacity="0.22"/>
  <rect x="0" y="31" width="1.05" height="1.05" fill="#03006b" fill-opacity="0.07"/>
  <rect x="1" y="31" width="1.05" height="1.05" fill="#03006b" fill-opacity="0.07"/>
  <rect x="2" y="31" width="1.05" height="1.05" fill="#03006b" fill-opacity="0.13"/>
  <rect x="3" y="31" width="1.05" height="1.05" fill="#03006b" fill-opacity="0.11"/>
  <rect x="4" y="31" width="1.05" height="1.05" fill="#03006b" fill-opacity="0.07"/>
  <rect x="5" y="31" width="1.05" height="1.05" fill="#03006b" fill-opacity="0.12"/>
  <rect x="6" y="31" width="1.05" height="1.05" fill="#03006b" fill-opacity="0.15"/>
  <rect x="7" y="31" width="1.05" height="1.05" fill="#03006b" fill-opacity="0.13"/>
  <rect x="8" y="31" width="1.05" height="1.05" fill="#03006b" fill-opacity="0.06"/>
  <rect x="9" y="31" width="1.05" height="1.05" fill="#03006b" fill-opacity="0.14"/>
  <rect x="10" y="31" width="1.05" height="1.05" fill="#03006b" fill-opacity="0.11"/>
  <rect x="11" y="31" width="1.05" height="1.05" fill="#03006b" fill-opacity="0.12"/>
  <rect x="12" y="31" width="1.05" height="1.05" fill="#03006b" fill-opacity="0.12"/>
  <rect x="13" y="31" width="1.05" height="1.05" fill="#03006b" fill-opacity="0.10"/>
  <rect x="14" y="31" width="1.05" height="1.05" fill="#03006b" fill-opacity="0.13"/>
  <rect x="15" y="31" width="1.05" height="1.05" fill="#03006b" fill-opacity="0.06"/>
</svg>